<?xml version="1.0" standalone="no"?>
<!DOCTYPE svg PUBLIC "-//W3C//DTD SVG 20010904//EN"
 "http://www.w3.org/TR/2001/REC-SVG-20010904/DTD/svg10.dtd">
<svg version="1.0" xmlns="http://www.w3.org/2000/svg"
 width="700.000000pt" height="700.000000pt" viewBox="0 0 700.000000 700.000000"
 preserveAspectRatio="xMidYMid meet">
<metadata>
Created by potrace 1.11, written by Peter Selinger 2001-2013
</metadata>
<g transform="translate(0.000000,700.000000) scale(0.100000,-0.100000)"
fill="#000000" stroke="none">
<path d="M3438 6156 c-67 -24 -94 -58 -214 -266 -64 -113 -132 -230 -150 -260
-36 -62 -253 -443 -304 -535 -18 -33 -51 -88 -72 -123 -21 -34 -38 -65 -38
-67 0 -3 -20 -38 -44 -78 -23 -39 -61 -103 -82 -142 -21 -38 -46 -82 -54 -96
-8 -15 -46 -81 -85 -148 l-69 -122 -23 28 c-12 15 -110 145 -217 288 -107 143
-199 265 -203 270 -5 6 -30 39 -56 75 -27 36 -53 72 -60 80 -7 9 -48 63 -91
120 -109 143 -135 162 -225 163 -116 1 -194 -78 -214 -218 -3 -16 -8 -41 -11
-55 -3 -14 -8 -36 -10 -50 -2 -14 -21 -106 -41 -205 -20 -99 -39 -191 -41
-205 -3 -14 -14 -70 -25 -125 -12 -55 -23 -111 -25 -125 -3 -14 -19 -92 -35
-175 -17 -82 -33 -161 -35 -175 -3 -13 -6 -25 -7 -27 -2 -1 -161 115 -267 196
-14 10 -83 62 -155 115 -71 52 -135 99 -140 103 -129 102 -176 127 -242 126
-65 -1 -127 -34 -165 -88 -37 -52 -43 -105 -23 -191 9 -38 18 -76 20 -84 2 -8
35 -139 73 -290 125 -486 213 -835 217 -850 3 -14 124 -493 260 -1025 35 -137
107 -421 160 -630 53 -209 102 -393 110 -410 17 -40 52 -76 98 -100 37 -19 63
-20 2550 -20 l2512 0 47 28 c68 40 89 84 147 312 119 473 236 933 314 1240 46
182 136 535 200 785 64 250 152 597 196 771 45 175 81 334 81 355 -1 145 -172
247 -300 179 -14 -8 -178 -128 -365 -268 -187 -140 -341 -254 -342 -253 -2 2
-45 212 -57 276 -2 14 -25 126 -50 250 -25 124 -48 236 -50 250 -3 14 -16 81
-30 150 -14 69 -28 140 -31 158 -27 156 -60 218 -133 254 -55 26 -133 28 -180
4 -45 -23 -65 -48 -296 -356 -113 -151 -214 -286 -225 -300 -11 -14 -51 -68
-89 -120 -102 -138 -124 -167 -152 -200 l-25 -29 -155 271 c-85 149 -167 292
-181 317 -14 25 -162 285 -329 576 -167 292 -308 539 -314 550 -57 107 -161
155 -258 121z"/>
</g>
</svg>
